<svg width="3739" height="426" viewBox="0 0 3739 426" fill="none" xmlns="http://www.w3.org/2000/svg">
<g clip-path="url(#clip0_238_341)">
<path d="M312.853 418.928H246.558L216.581 300.756C215.044 295.019 213.507 288.709 211.969 281.825C210.432 274.941 208.895 268.249 207.358 261.747C205.82 255.246 204.283 249.127 202.746 243.39C201.593 237.654 200.824 233.065 200.44 229.623C199.671 233.065 198.71 237.654 197.557 243.39C196.405 249.127 195.059 255.246 193.522 261.747C191.985 268.249 190.448 274.941 188.91 281.825C187.373 288.709 185.836 295.019 184.298 300.756L154.322 418.928H88.0267L0.978516 117.76H81.6854L108.203 229.049C109.356 234.786 110.701 240.904 112.239 247.406C113.776 253.907 115.121 260.409 116.274 266.91C117.811 273.029 118.964 278.957 119.733 284.693C120.886 290.047 121.847 294.445 122.615 297.887C123.768 290.239 125.882 279.913 128.957 266.91C132.415 253.525 135.682 240.904 138.757 229.049L168.734 117.76H234.452L264.429 229.049C267.503 240.904 270.578 253.525 273.653 266.91C277.111 279.913 279.417 290.239 280.57 297.887C280.955 294.445 281.723 290.047 282.876 284.693C284.029 278.957 285.182 273.029 286.335 266.91C287.872 260.409 289.41 253.907 290.947 247.406C292.484 240.904 293.829 234.786 294.982 229.049L321.5 117.76H399.901L312.853 418.928Z" fill="#243E90"/>
<path d="M710.518 268.631C710.518 274.367 710.326 279.339 709.942 283.546C709.942 287.37 709.75 290.812 709.365 293.872H528.351C529.12 304.197 531.426 312.993 535.269 320.26C539.112 327.526 543.916 333.454 549.681 338.043C555.446 342.25 561.787 345.5 568.705 347.795C576.007 349.707 583.309 350.663 590.611 350.663C601.756 350.663 611.748 348.751 620.588 344.927C629.427 341.102 636.729 335.939 642.494 329.438L698.989 376.477C686.69 392.157 670.549 404.204 650.564 412.618C630.964 421.031 610.98 425.238 590.611 425.238C568.705 425.238 548.912 421.605 531.233 414.339C513.939 406.69 499.143 396.173 486.845 382.788C474.547 369.02 464.939 352.575 458.021 333.454C451.487 313.949 448.221 292.342 448.221 268.631C448.221 245.685 451.68 224.651 458.597 205.529C465.515 186.025 474.931 169.389 486.845 155.621C499.143 141.471 513.363 130.572 529.504 122.923C546.03 115.275 563.901 111.45 583.117 111.45C603.101 111.45 620.972 115.657 636.729 124.071C652.87 132.102 666.322 143.384 677.082 157.916C687.843 172.066 696.106 188.702 701.871 207.824C707.636 226.945 710.518 247.215 710.518 268.631ZM633.27 234.212C632.501 227.328 630.964 220.827 628.658 214.708C626.352 208.206 622.894 202.47 618.282 197.498C614.054 192.144 608.674 187.937 602.14 184.878C595.607 181.818 587.921 180.288 579.081 180.288C564.477 180.288 552.948 185.451 544.493 195.777C536.038 206.103 531.041 218.914 529.504 234.212H633.27Z" fill="#243E90"/>
<path d="M957.516 418.928V398.85C950.214 406.499 940.606 412.809 928.692 417.78C916.778 422.752 903.711 425.238 889.492 425.238C875.272 425.238 861.436 423.135 847.985 418.928C834.534 414.339 822.428 407.646 811.667 398.85C801.291 390.054 792.836 378.963 786.302 365.578C779.769 352.193 776.502 336.322 776.502 317.965C776.502 301.52 779.577 286.988 785.726 274.367C792.259 261.747 801.098 251.421 812.244 243.39C823.389 234.977 836.264 228.666 850.868 224.46C865.856 220.253 881.997 218.149 899.292 218.149C913.127 218.149 924.657 219.488 933.88 222.165C943.104 224.46 950.983 227.137 957.516 230.196V215.281C957.516 204.573 953.865 195.586 946.563 188.32C939.645 180.671 928.884 176.847 914.28 176.847C905.057 176.847 896.794 177.229 889.492 177.994C882.574 178.759 875.848 179.906 869.315 181.436C863.166 182.965 857.017 185.069 850.868 187.746C844.719 190.041 838.185 193.1 831.267 196.924L800.714 141.854C809.553 136.882 818.008 132.484 826.079 128.66C834.534 124.835 843.181 121.776 852.021 119.481C861.244 116.804 870.852 114.892 880.845 113.745C890.837 112.215 901.982 111.45 914.28 111.45C932.727 111.45 949.445 113.745 964.434 118.334C979.422 122.923 992.297 129.807 1003.06 138.986C1013.82 147.782 1022.08 158.872 1027.85 172.257C1034 185.26 1037.07 200.175 1037.07 217.002V418.928H957.516ZM957.516 292.724C950.598 288.517 943.104 285.458 935.033 283.546C927.347 281.251 916.394 280.104 902.174 280.104C887.186 280.104 875.656 283.355 867.586 289.856C859.899 296.357 856.056 305.727 856.056 317.965C856.056 328.673 859.515 338.043 866.433 346.074C873.35 354.105 885.264 358.121 902.174 358.121C915.241 358.121 926.578 355.444 936.186 350.089C946.179 344.353 953.289 337.852 957.516 330.585V292.724Z" fill="#243E90"/>
<path d="M1298.71 406.881C1292.18 412.235 1283.34 416.633 1272.19 420.075C1261.05 423.517 1249.33 425.238 1237.03 425.238C1224.73 425.238 1213.59 423.135 1203.59 418.928C1193.6 414.339 1185.15 408.028 1178.23 399.997C1171.31 391.966 1165.93 382.405 1162.09 371.315C1158.24 360.224 1156.32 347.986 1156.32 334.601V192.335H1105.59V117.76H1156.32V40.3174L1235.88 0.735352V117.76H1308.51V192.335H1235.88V313.376C1235.88 327.908 1238.37 337.66 1243.37 342.632C1248.37 347.221 1255.67 349.516 1265.28 349.516C1272.58 349.516 1279.3 347.795 1285.45 344.353C1291.99 340.911 1300.25 334.983 1310.24 326.57L1298.71 406.881Z" fill="#243E90"/>
<path d="M1587.01 418.928V256.011C1587.01 229.24 1582.59 210.883 1573.75 200.94C1564.91 190.997 1552.23 186.025 1535.7 186.025C1519.18 186.025 1506.3 190.997 1497.08 200.94C1488.24 210.501 1483.82 228.284 1483.82 254.29V418.928H1404.27V40.3174L1483.82 0.735352V137.838C1490.74 130.572 1500.15 124.453 1512.07 119.481C1524.37 114.127 1538.58 111.45 1554.73 111.45C1593.16 111.45 1621.41 123.879 1639.47 148.738C1657.53 173.213 1666.56 206.676 1666.56 249.127V418.928H1587.01Z" fill="#243E90"/>
<path d="M2009.65 268.631C2009.65 274.367 2009.46 279.339 2009.08 283.546C2009.08 287.37 2008.88 290.812 2008.5 293.872H1827.49C1828.25 304.197 1830.56 312.993 1834.4 320.26C1838.25 327.526 1843.05 333.454 1848.82 338.043C1854.58 342.25 1860.92 345.5 1867.84 347.795C1875.14 349.707 1882.44 350.663 1889.75 350.663C1900.89 350.663 1910.88 348.751 1919.72 344.927C1928.56 341.102 1935.86 335.939 1941.63 329.438L1998.12 376.477C1985.83 392.157 1969.68 404.204 1949.7 412.618C1930.1 421.031 1910.11 425.238 1889.75 425.238C1867.84 425.238 1848.05 421.605 1830.37 414.339C1813.07 406.69 1798.28 396.173 1785.98 382.788C1773.68 369.02 1764.07 352.575 1757.16 333.454C1750.62 313.949 1747.36 292.342 1747.36 268.631C1747.36 245.685 1750.81 224.651 1757.73 205.529C1764.65 186.025 1774.07 169.389 1785.98 155.621C1798.28 141.471 1812.5 130.572 1828.64 122.923C1845.16 115.275 1863.04 111.45 1882.25 111.45C1902.24 111.45 1920.11 115.657 1935.86 124.071C1952.01 132.102 1965.46 143.384 1976.22 157.916C1986.98 172.066 1995.24 188.702 2001.01 207.824C2006.77 226.945 2009.65 247.215 2009.65 268.631ZM1932.4 234.212C1931.64 227.328 1930.1 220.827 1927.79 214.708C1925.49 208.206 1922.03 202.47 1917.42 197.498C1913.19 192.144 1907.81 187.937 1901.28 184.878C1894.74 181.818 1887.06 180.288 1878.22 180.288C1863.61 180.288 1852.08 185.451 1843.63 195.777C1835.17 206.103 1830.18 218.914 1828.64 234.212H1932.4Z" fill="#243E90"/>
<path d="M2271.53 210.118C2265 204.382 2257.89 199.793 2250.2 196.351C2242.51 192.526 2234.25 190.614 2225.41 190.614C2217.73 190.614 2210.62 191.57 2204.08 193.482C2197.93 195.395 2192.55 198.837 2187.94 203.808C2183.71 208.78 2180.25 215.472 2177.56 223.886C2175.26 232.3 2174.11 243.008 2174.11 256.011V418.928H2094.55V117.76H2174.11V137.838C2181.02 130.572 2189.48 124.453 2199.47 119.481C2209.85 114.127 2222.15 111.45 2236.37 111.45C2249.43 111.45 2260.58 113.745 2269.8 118.334C2279.41 122.541 2286.9 127.321 2292.28 132.675L2271.53 210.118Z" fill="#243E90"/>
<path d="M2587.98 331.159C2587.98 348.369 2584.72 363.092 2578.18 375.33C2571.65 387.186 2562.81 396.938 2551.67 404.586C2540.52 411.853 2527.45 417.016 2512.47 420.075C2497.48 423.517 2481.53 425.238 2464.62 425.238C2440.41 425.238 2417.15 422.178 2394.86 416.059C2372.96 409.558 2353.93 400.953 2337.79 390.245L2364.31 330.012C2380.45 338.808 2396.98 345.691 2413.89 350.663C2431.18 355.252 2449.63 357.547 2469.23 357.547C2484.99 357.547 2495.56 355.635 2500.94 351.81C2506.7 347.986 2509.58 342.25 2509.58 334.601C2509.58 327.717 2506.32 322.172 2499.78 317.965C2493.63 313.758 2482.1 309.169 2465.19 304.197C2447.13 298.843 2430.61 293.489 2415.62 288.135C2401.01 282.399 2388.52 275.897 2378.15 268.631C2367.77 260.982 2359.7 251.804 2353.93 241.096C2348.55 230.387 2345.86 217.002 2345.86 200.94C2345.86 185.26 2348.75 171.875 2354.51 160.784C2360.66 149.311 2369.11 139.942 2379.88 132.675C2390.64 125.409 2403.32 120.055 2417.92 116.613C2432.91 113.171 2449.25 111.45 2466.92 111.45C2486.14 111.45 2505.55 114.127 2525.15 119.481C2544.75 124.835 2562.62 131.91 2578.76 140.706L2553.4 203.235C2538.41 195.203 2523.03 189.276 2507.28 185.451C2491.9 181.245 2477.88 179.141 2465.19 179.141C2449.05 179.141 2438.1 180.862 2432.34 184.304C2426.95 187.363 2424.26 192.144 2424.26 198.645C2424.26 201.705 2425.03 204.573 2426.57 207.25C2428.11 209.545 2430.99 212.031 2435.22 214.708C2439.83 217.002 2446.17 219.679 2454.24 222.739C2462.7 225.798 2473.65 229.431 2487.1 233.638C2500.55 238.227 2513.43 243.008 2525.72 247.979C2538.02 252.951 2548.78 259.07 2558.01 266.336C2567.23 273.603 2574.53 282.59 2579.91 293.298C2585.29 303.624 2587.98 316.244 2587.98 331.159Z" fill="#243E90"/>
<path d="M2923.56 358.121C2916.26 368.064 2908.38 377.051 2899.93 385.082C2891.85 393.113 2882.82 400.188 2872.83 406.307C2863.22 412.426 2852.27 417.016 2839.97 420.075C2828.06 423.517 2814.61 425.238 2799.62 425.238C2780.02 425.238 2761.57 421.414 2744.28 413.765C2726.98 406.116 2711.8 395.408 2698.73 381.64C2686.05 367.873 2676.06 351.428 2668.76 332.306C2661.46 312.802 2657.8 291.577 2657.8 268.631C2657.8 245.685 2661.46 224.651 2668.76 205.529C2676.06 186.025 2686.05 169.389 2698.73 155.621C2711.8 141.471 2727.17 130.572 2744.85 122.923C2762.53 115.275 2781.94 111.45 2803.08 111.45C2831.9 111.45 2855.92 117.76 2875.14 130.381C2894.35 142.619 2910.3 158.49 2922.98 177.994L2870.53 230.77C2861.69 218.15 2851.89 207.824 2841.12 199.793C2830.75 191.762 2817.49 187.746 2801.35 187.746C2782.13 187.746 2766.76 195.012 2755.23 209.545C2744.08 224.077 2738.51 243.773 2738.51 268.631C2738.51 292.724 2744.08 312.228 2755.23 327.143C2766.76 341.676 2782.13 348.942 2801.35 348.942C2817.1 348.942 2830.36 345.691 2841.12 339.19C2851.89 332.306 2862.45 322.745 2872.83 310.507L2923.56 358.121Z" fill="#243E90"/>
<path d="M3166.23 418.928V398.85C3158.92 406.499 3149.32 412.809 3137.4 417.78C3125.49 422.752 3112.42 425.238 3098.2 425.238C3083.98 425.238 3070.15 423.135 3056.7 418.928C3043.24 414.339 3031.14 407.646 3020.38 398.85C3010 390.054 3001.55 378.963 2995.01 365.578C2988.48 352.193 2985.21 336.322 2985.21 317.965C2985.21 301.52 2988.29 286.988 2994.44 274.367C3000.97 261.747 3009.81 251.421 3020.95 243.39C3032.1 234.977 3044.97 228.666 3059.58 224.46C3074.57 220.253 3090.71 218.149 3108 218.149C3121.84 218.149 3133.37 219.488 3142.59 222.165C3151.81 224.46 3159.69 227.137 3166.23 230.196V215.281C3166.23 204.573 3162.57 195.586 3155.27 188.32C3148.36 180.671 3137.59 176.847 3122.99 176.847C3113.77 176.847 3105.5 177.229 3098.2 177.994C3091.28 178.759 3084.56 179.906 3078.02 181.436C3071.88 182.965 3065.73 185.069 3059.58 187.746C3053.43 190.041 3046.9 193.1 3039.98 196.924L3009.42 141.854C3018.26 136.882 3026.72 132.484 3034.79 128.66C3043.24 124.835 3051.89 121.776 3060.73 119.481C3069.95 116.804 3079.56 114.892 3089.55 113.745C3099.55 112.215 3110.69 111.45 3122.99 111.45C3141.44 111.45 3158.16 113.745 3173.14 118.334C3188.13 122.923 3201.01 129.807 3211.77 138.986C3222.53 147.782 3230.79 158.872 3236.56 172.257C3242.71 185.26 3245.78 200.175 3245.78 217.002V418.928H3166.23ZM3166.23 292.724C3159.31 288.517 3151.81 285.458 3143.74 283.546C3136.06 281.251 3125.1 280.104 3110.88 280.104C3095.9 280.104 3084.37 283.355 3076.3 289.856C3068.61 296.357 3064.77 305.727 3064.77 317.965C3064.77 328.673 3068.22 338.043 3075.14 346.074C3082.06 354.105 3093.97 358.121 3110.88 358.121C3123.95 358.121 3135.29 355.444 3144.9 350.089C3154.89 344.353 3162 337.852 3166.23 330.585V292.724Z" fill="#243E90"/>
<path d="M3521.26 418.928V256.011C3521.26 229.24 3516.84 210.883 3508 200.94C3499.16 190.997 3486.48 186.025 3469.95 186.025C3453.43 186.025 3440.55 190.997 3431.33 200.94C3422.49 210.501 3418.07 228.284 3418.07 254.29V418.928H3338.51V117.76H3418.07V137.838C3424.99 130.572 3434.4 124.453 3446.32 119.481C3458.61 114.127 3472.83 111.45 3488.98 111.45C3527.41 111.45 3555.65 123.879 3573.72 148.738C3591.78 173.213 3600.81 206.676 3600.81 249.127V418.928H3521.26Z" fill="#243E90"/>
<path d="M3690.95 214.846C3663.96 214.846 3643.4 194.174 3643.4 167.059C3643.4 139.942 3663.95 119.271 3690.95 119.271C3717.99 119.271 3738.59 139.942 3738.59 167.059C3738.59 194.174 3717.99 214.846 3690.95 214.846ZM3690.95 126.936C3668.31 126.936 3651.04 144.302 3651.04 167.057C3651.04 189.818 3668.31 207.178 3690.95 207.178C3713.67 207.178 3730.94 189.818 3730.94 167.057C3730.94 144.304 3713.67 126.936 3690.95 126.936ZM3701.63 171.174L3712.34 192.198H3701.94L3691.78 172.101H3681.77V192.198H3672.9V140.063H3695.7C3704.92 140.063 3712.73 144.951 3712.73 155.806C3712.73 163.984 3708.42 169.165 3701.63 171.174ZM3695.47 148.657H3681.77V163.472H3695.47C3700.21 163.472 3703.78 161.245 3703.78 156.078C3703.78 151.158 3700.21 148.657 3695.47 148.657Z" fill="#243E90"/>
</g>
<defs>
<clipPath id="clip0_238_341">
<rect width="3737.61" height="424.503" fill="white" transform="translate(0.978516 0.735352)"/>
</clipPath>
</defs>
</svg>
