<?xml version="1.0" standalone="no"?>
<!DOCTYPE svg PUBLIC "-//W3C//DTD SVG 20010904//EN"
 "http://www.w3.org/TR/2001/REC-SVG-20010904/DTD/svg10.dtd">
<svg version="1.0" xmlns="http://www.w3.org/2000/svg"
 width="1264.000000pt" height="1264.000000pt" viewBox="0 0 1264.000000 1264.000000"
 preserveAspectRatio="xMidYMid meet">
<metadata>
Created by potrace 1.14, written by Peter Selinger 2001-2017
</metadata>
<g transform="translate(0.000000,1264.000000) scale(0.100000,-0.100000)"
fill="#000000" stroke="none">
<path d="M9928 9455 c-2 -2 -46 -6 -98 -10 -52 -3 -108 -7 -125 -9 -45 -6
-125 -16 -165 -21 -19 -3 -52 -7 -73 -10 -21 -3 -70 -12 -110 -21 -40 -8 -85
-18 -102 -20 -16 -3 -48 -10 -70 -16 -22 -6 -47 -13 -56 -14 -27 -5 -232 -75
-266 -90 -17 -8 -34 -14 -37 -14 -12 0 -201 -94 -207 -103 -3 -5 -10 -8 -15
-7 -11 1 -188 -111 -192 -122 -2 -4 -7 -8 -12 -8 -12 0 -83 -63 -175 -155 -99
-98 -135 -141 -128 -149 4 -3 2 -6 -4 -6 -14 0 -103 -139 -152 -238 -34 -68
-85 -202 -97 -254 -2 -10 -6 -26 -8 -35 -40 -166 -51 -272 -51 -488 1 -250 19
-396 72 -575 43 -146 123 -307 197 -401 12 -14 30 -38 41 -54 24 -35 204 -218
260 -264 109 -90 391 -257 566 -334 19 -9 66 -30 105 -47 86 -40 189 -78 369
-140 77 -26 147 -50 155 -53 8 -3 96 -31 195 -62 99 -31 202 -63 228 -72 26
-8 53 -16 60 -17 32 -5 450 -139 502 -161 169 -70 215 -90 245 -109 19 -12 49
-28 65 -36 17 -8 60 -44 96 -80 79 -78 110 -148 112 -250 1 -135 -30 -225
-105 -301 -47 -48 -127 -101 -139 -93 -5 3 -9 1 -9 -4 0 -7 -32 -17 -130 -39
-16 -4 -45 -8 -100 -17 -209 -33 -732 -15 -1010 34 -25 4 -52 8 -60 9 -23 1
-66 8 -87 15 -10 3 -31 8 -48 11 -40 7 -61 11 -115 24 -25 7 -56 14 -70 17
-14 2 -47 12 -75 21 -105 33 -141 45 -160 52 -28 11 -88 32 -100 35 -5 1 -26
9 -46 18 -20 9 -47 19 -60 23 -26 8 -73 27 -129 53 -19 8 -37 16 -40 17 -38
14 -124 54 -258 121 l-162 82 -16 -37 c-9 -20 -29 -64 -45 -99 -16 -35 -29
-65 -29 -67 0 -2 -12 -30 -26 -62 -14 -32 -32 -71 -39 -88 -7 -16 -25 -56 -39
-87 -15 -32 -27 -61 -27 -65 0 -5 -6 -17 -13 -28 -7 -11 -20 -38 -28 -60 -9
-22 -26 -62 -39 -90 -12 -27 -23 -52 -24 -55 -1 -3 -13 -31 -28 -64 -15 -32
-27 -60 -27 -62 0 -2 -14 -34 -31 -71 -17 -38 -37 -81 -44 -98 -7 -16 -22 -51
-34 -77 -46 -103 -51 -90 51 -152 49 -31 94 -56 99 -56 5 0 9 -3 9 -7 0 -5 20
-16 45 -26 25 -11 45 -22 45 -26 0 -4 23 -15 50 -26 28 -11 50 -23 50 -27 0
-4 4 -8 10 -8 10 0 168 -71 204 -91 10 -6 26 -12 35 -14 9 -2 53 -19 99 -38
45 -20 82 -33 82 -31 0 3 14 -3 31 -12 17 -8 38 -17 47 -19 10 -2 51 -15 92
-30 41 -14 82 -27 90 -29 8 -2 35 -10 60 -17 25 -7 47 -13 50 -14 3 0 55 -13
115 -28 61 -14 121 -28 135 -31 14 -2 45 -9 70 -14 25 -6 63 -13 85 -16 23 -4
52 -9 65 -12 14 -3 41 -7 60 -9 19 -3 55 -8 80 -11 25 -3 56 -8 70 -10 308
-41 816 -50 1115 -19 144 15 277 35 405 62 41 8 84 17 95 18 11 2 29 6 40 8
69 18 151 38 160 40 6 2 16 6 23 10 6 5 12 6 12 3 0 -3 16 2 35 10 19 8 35 11
35 8 0 -4 6 -2 13 3 11 10 68 26 76 23 2 -1 7 2 10 7 3 4 33 19 66 31 33 13
67 27 75 32 8 5 43 23 78 40 68 34 189 106 208 124 7 6 27 22 45 36 97 74 175
149 263 255 83 100 86 104 86 115 0 6 4 10 9 10 5 0 13 9 16 20 3 11 12 26 18
33 58 63 161 315 200 487 60 264 67 619 17 860 -6 30 -13 66 -16 80 -8 47 -55
180 -86 248 -17 37 -32 69 -32 72 -1 3 -9 16 -17 30 -9 14 -31 50 -49 80 -85
142 -238 314 -371 416 -35 26 -65 52 -67 56 -2 4 -9 8 -16 8 -7 0 -21 8 -32
18 -66 61 -377 224 -584 305 -63 25 -128 51 -145 58 -16 7 -37 13 -45 15 -8 2
-23 7 -35 13 -48 24 -558 204 -610 216 -5 1 -17 5 -25 8 -8 3 -46 15 -85 27
-38 12 -77 24 -85 27 -8 3 -103 35 -210 72 -107 37 -212 75 -232 84 -93 42
-107 47 -120 47 -8 0 -18 4 -23 9 -6 5 -39 21 -75 37 -36 15 -67 31 -70 34 -3
3 -23 17 -45 32 -117 79 -172 184 -162 306 7 81 11 98 31 137 20 39 93 113
129 132 44 23 174 63 212 66 19 1 35 4 35 7 0 3 10 5 23 6 12 1 63 5 112 9
161 15 510 9 609 -11 11 -2 41 -7 66 -10 25 -3 52 -7 60 -9 8 -3 33 -7 55 -10
22 -4 49 -9 60 -12 11 -4 27 -7 35 -8 49 -5 410 -102 536 -143 165 -55 307
-115 508 -212 87 -43 110 -50 117 -39 5 8 9 18 9 22 0 5 6 23 14 40 8 18 41
100 75 182 33 83 66 164 72 180 7 17 13 32 14 35 1 3 7 19 15 35 7 17 20 50
30 75 22 56 227 564 245 605 27 63 30 59 -88 119 -62 31 -117 56 -123 56 -5 0
-15 5 -21 11 -11 11 -41 24 -228 101 -118 48 -310 117 -344 124 -14 3 -28 7
-33 10 -31 19 -461 129 -578 148 -19 3 -46 8 -60 11 -55 11 -77 14 -125 20
-27 4 -66 9 -85 11 -40 6 -102 12 -180 20 -60 6 -617 14 -622 9z"/>
<path d="M536 9342 c-507 -2 -538 -3 -531 -20 3 -9 13 -39 20 -67 8 -27 23
-84 35 -125 12 -41 23 -82 25 -90 2 -8 13 -44 24 -80 18 -58 100 -338 121
-415 5 -16 16 -55 25 -85 20 -70 22 -77 35 -122 19 -70 28 -103 50 -173 11
-38 23 -77 25 -85 2 -8 20 -71 40 -140 20 -69 38 -132 41 -140 13 -51 75 -263
87 -302 8 -27 13 -48 11 -48 -3 0 0 -9 6 -21 6 -11 13 -29 16 -40 8 -35 13
-53 49 -179 20 -69 38 -133 40 -143 2 -9 6 -21 9 -25 3 -5 7 -19 10 -33 3 -13
14 -55 26 -94 23 -74 27 -87 59 -200 107 -379 134 -473 142 -490 5 -11 11 -29
12 -40 2 -11 6 -27 9 -35 5 -12 23 -75 43 -150 2 -8 11 -40 20 -70 9 -30 23
-80 31 -110 8 -30 18 -62 21 -70 3 -8 8 -24 10 -35 6 -28 9 -38 16 -55 6 -14
114 -388 122 -420 2 -8 4 -17 5 -20 1 -3 3 -9 5 -15 1 -5 3 -13 5 -17 1 -5 3
-11 4 -15 12 -45 28 -101 33 -113 3 -8 8 -24 10 -35 2 -11 10 -37 18 -58 8
-20 15 -40 15 -45 0 -4 5 -25 11 -47 6 -22 13 -47 15 -55 2 -8 19 -68 39 -132
19 -65 37 -128 39 -140 3 -13 5 -24 7 -25 1 -2 2 -6 4 -10 1 -5 4 -15 7 -23 3
-8 14 -42 23 -75 26 -93 52 -185 70 -245 9 -30 18 -63 20 -73 2 -9 6 -21 9
-25 3 -5 7 -19 10 -33 8 -38 21 -84 70 -249 26 -85 48 -163 51 -173 11 -47 78
-274 85 -287 7 -13 91 -15 666 -15 l657 1 8 23 c5 12 11 32 13 44 3 12 15 60
26 107 12 47 23 92 25 100 2 8 23 87 45 175 23 88 43 167 45 175 2 8 20 78 40
155 20 77 38 149 39 160 2 11 6 27 9 35 5 13 9 29 23 85 1 6 25 102 54 215 29
113 53 212 55 220 2 8 4 15 5 15 1 0 3 9 5 20 3 11 25 101 50 200 26 99 48
187 50 195 2 8 13 51 24 95 12 44 24 91 27 105 3 14 32 129 64 255 33 127 62
241 64 255 3 14 12 55 20 91 8 36 17 77 20 90 2 13 7 31 10 39 3 8 7 26 10 40
2 14 18 84 35 155 17 72 32 141 35 155 2 14 5 25 6 25 2 0 4 12 13 55 3 14 9
43 15 65 5 22 9 43 10 48 1 4 2 8 3 10 0 1 2 11 4 22 4 22 18 87 20 95 1 3 5
25 9 50 11 60 13 69 25 108 11 37 11 37 11 57 0 18 16 20 17 3 1 -14 12 -92
17 -118 15 -78 22 -111 48 -215 17 -66 32 -128 34 -137 2 -10 6 -26 8 -35 2
-10 11 -46 20 -81 9 -34 21 -82 26 -105 4 -23 11 -51 14 -62 7 -28 34 -151 45
-205 6 -25 12 -52 15 -60 5 -14 9 -31 21 -95 3 -11 9 -38 15 -60 6 -22 12 -49
14 -61 2 -11 6 -25 9 -31 3 -5 8 -20 11 -34 2 -13 16 -71 31 -129 14 -58 28
-112 30 -120 2 -8 17 -69 35 -135 17 -66 33 -129 35 -140 3 -11 25 -101 51
-200 25 -99 50 -198 54 -220 5 -22 13 -52 19 -67 6 -16 9 -28 6 -28 -2 0 2
-15 10 -34 8 -18 12 -36 9 -39 -3 -3 -1 -14 5 -25 5 -10 12 -30 15 -43 2 -13
20 -89 40 -168 20 -79 38 -151 40 -160 2 -9 5 -23 8 -31 6 -14 62 -237 73
-285 3 -16 48 -190 70 -275 2 -8 15 -61 29 -117 13 -57 27 -107 30 -112 4 -5
8 -22 11 -38 6 -42 10 -57 17 -68 4 -7 236 -10 664 -10 l657 1 9 24 c8 20 83
275 103 350 3 8 23 78 45 155 39 132 56 190 65 225 2 8 4 15 5 15 1 0 3 7 5
16 1 8 14 53 28 100 64 219 108 370 112 386 8 34 76 268 82 283 3 8 7 22 9 30
2 8 17 62 34 120 32 106 59 202 65 230 2 8 17 60 34 115 43 144 102 347 106
365 1 8 5 22 8 30 8 20 68 230 72 253 2 9 7 22 10 27 4 6 8 20 11 33 2 12 31
114 64 227 33 113 62 213 65 223 2 10 27 97 56 195 28 97 53 184 54 192 2 8 4
15 5 15 1 0 4 8 14 50 2 11 9 31 14 45 5 14 10 27 10 30 0 3 3 12 6 20 5 15
85 295 90 315 1 6 10 37 20 70 10 33 20 67 22 75 2 8 10 40 19 70 15 51 32
111 38 135 2 6 11 35 20 65 19 62 59 201 88 305 11 39 22 77 26 85 3 8 7 22 9
30 2 8 15 56 29 105 15 50 31 106 36 125 16 59 17 63 39 135 12 39 23 79 25
90 3 11 9 31 14 45 5 14 37 124 71 245 35 121 73 252 85 290 12 39 19 74 15
78 -4 5 -44 7 -89 5 -44 -2 -81 -1 -81 2 0 3 -108 3 -240 0 -132 -3 -240 -3
-240 0 0 3 -108 3 -240 0 -132 -3 -240 -3 -240 0 0 3 -97 4 -215 2 -238 -3
-217 3 -230 -68 -2 -10 -4 -20 -5 -21 -3 -3 -3 -3 -15 -58 -4 -22 -10 -44 -11
-50 -3 -9 -6 -22 -18 -80 -3 -11 -14 -58 -26 -105 -11 -47 -23 -94 -25 -105
-7 -32 -13 -55 -30 -125 -9 -36 -18 -74 -19 -85 -2 -11 -9 -40 -16 -65 -6 -25
-14 -52 -15 -60 -2 -8 -20 -82 -40 -165 -20 -82 -38 -159 -40 -170 -1 -11 -3
-20 -4 -20 -3 0 -4 -8 -15 -60 -5 -27 -61 -258 -67 -277 -2 -9 -9 -37 -14 -63
-3 -16 -13 -57 -22 -90 -15 -62 -20 -79 -28 -117 -2 -13 -19 -81 -36 -151 -17
-71 -32 -136 -34 -145 -2 -10 -11 -48 -20 -87 -9 -38 -18 -77 -20 -85 -2 -8
-6 -26 -9 -40 -3 -14 -8 -37 -10 -53 -3 -15 -8 -37 -12 -50 -4 -12 -8 -33 -10
-47 -1 -14 -3 -26 -4 -27 -3 -4 -3 -3 -20 -78 -17 -75 -14 -65 -39 -165 -12
-47 -23 -96 -26 -110 -2 -14 -11 -52 -19 -85 -8 -33 -18 -73 -21 -90 -2 -16
-7 -40 -10 -52 -8 -36 -12 -55 -20 -98 -13 -70 -39 -200 -48 -240 -3 -11 -10
-56 -17 -100 -12 -76 -25 -115 -26 -77 -1 23 -32 182 -51 257 -8 33 -17 69
-19 80 -6 31 -11 51 -44 175 -16 63 -32 131 -35 150 -4 19 -9 42 -12 50 -3 8
-7 24 -9 35 -4 25 -4 26 -54 225 -22 91 -43 172 -45 180 -3 15 -71 277 -81
315 -3 11 -6 25 -8 30 -1 6 -10 35 -19 65 -9 30 -18 66 -20 80 -2 14 -7 32
-10 40 -6 15 -97 352 -101 374 -1 6 -7 27 -14 46 -6 19 -14 46 -16 60 -3 14
-17 66 -30 115 -13 50 -36 133 -50 185 -14 52 -48 181 -76 285 -29 105 -54
199 -57 210 -6 26 -9 37 -16 55 -3 8 -18 62 -33 120 -15 58 -36 137 -46 175
-11 39 -28 102 -38 140 -10 39 -22 80 -26 93 l-6 23 -274 -3 c-151 -2 -274 -1
-274 2 0 3 -108 3 -240 0 -132 -3 -240 -3 -240 0 0 3 -64 4 -143 2 l-143 -3
-14 -52 c-7 -29 -28 -108 -47 -177 -19 -69 -36 -132 -38 -140 -2 -8 -10 -42
-19 -75 -9 -33 -19 -69 -21 -79 -2 -10 -9 -33 -14 -50 -8 -25 -50 -179 -67
-246 -2 -8 -15 -58 -29 -110 -15 -52 -42 -156 -61 -230 -19 -74 -38 -142 -41
-150 -3 -8 -7 -19 -8 -25 -2 -5 -11 -39 -20 -75 -9 -36 -18 -69 -19 -75 -1 -5
-5 -16 -10 -23 -4 -7 -5 -16 -2 -19 3 -3 1 -13 -4 -23 -5 -9 -11 -28 -14 -41
-3 -13 -14 -58 -26 -99 -21 -73 -25 -88 -34 -130 -3 -11 -7 -24 -10 -28 -3 -5
-7 -19 -9 -33 -3 -13 -11 -44 -18 -69 -7 -25 -13 -49 -15 -55 -1 -5 -9 -37
-18 -70 -20 -71 -25 -89 -30 -112 -2 -10 -14 -53 -25 -96 -12 -42 -46 -175
-77 -295 -30 -119 -61 -238 -69 -265 -8 -26 -14 -51 -15 -55 0 -4 -5 -25 -11
-47 -6 -22 -13 -51 -16 -65 -2 -14 -9 -43 -15 -65 -5 -22 -12 -51 -15 -65 -2
-14 -10 -53 -18 -86 -8 -34 -17 -75 -20 -90 -14 -72 -38 -203 -44 -239 -8 -49
-13 -39 -36 83 -2 13 -7 33 -11 45 -4 12 -8 33 -10 47 -1 14 -5 36 -8 50 -3
13 -8 42 -11 65 -3 22 -8 48 -11 58 -4 11 -7 29 -9 40 -7 48 -17 102 -21 108
-2 4 -13 51 -23 105 -44 223 -50 251 -76 359 -9 39 -18 79 -20 90 -2 11 -6 29
-8 40 -5 19 -44 197 -52 234 -5 24 -30 131 -40 171 -3 11 -7 30 -10 43 -3 12
-14 60 -26 107 -24 98 -28 116 -35 150 -3 14 -7 33 -10 42 -3 9 -7 26 -9 37
-3 12 -7 31 -11 44 -11 48 -17 73 -18 89 -1 10 -5 21 -9 24 -4 4 -7 18 -7 30
0 13 -4 33 -9 46 -8 19 -64 253 -76 314 -2 10 -4 19 -5 19 -1 0 -3 10 -6 22
-2 12 -16 71 -30 130 -14 59 -27 115 -29 123 -2 8 -8 35 -15 60 -7 25 -13 52
-15 60 -2 8 -17 73 -34 145 -32 130 -49 204 -56 239 -3 10 -14 56 -25 101 -11
45 -23 92 -25 104 -3 11 -7 31 -10 44 -3 12 -8 37 -11 55 -6 31 -9 33 -35 30
-16 -3 -29 -2 -29 1 0 3 -108 4 -240 1 -132 -3 -241 -3 -243 0 -1 3 -244 4
-541 2z"/>
</g>
</svg>
